<svg id="Layer_1" data-name="Layer 1" xmlns="http://www.w3.org/2000/svg" viewBox="0 0 500 500"><defs><style>.cls-1{fill:#563d7c;}.cls-2{fill:#fff;}</style></defs><title>Artboard 1</title><path class="cls-1" d="M25,417a58,58,0,0,0,58,58H417a58,58,0,0,0,58-58V83a58,58,0,0,0-58-58H83A58,58,0,0,0,25,83V417Z"/><path class="cls-2" d="M211.61,224.05V160.33H267.7a87.35,87.35,0,0,1,15.45,1.33,38.65,38.65,0,0,1,13.17,4.77,25.46,25.46,0,0,1,9.16,9.54q3.43,6.1,3.43,15.64,0,17.17-10.3,24.81t-26.33,7.63ZM151.69,113.77V386.23h132a139.48,139.48,0,0,0,35.68-4.58,95.49,95.49,0,0,0,30.91-14.12,69.6,69.6,0,0,0,21.56-24.61q8-15.07,8-35.68,0-25.58-12.4-43.69T329.9,238.17q18.32-8.78,27.67-22.51t9.35-34.35q0-19.08-6.3-32.05a52.36,52.36,0,0,0-17.75-20.8q-11.44-7.82-27.47-11.26a169.61,169.61,0,0,0-35.49-3.43Zm59.92,225.9V264.88h65.25q19.45,0,31.29,9T320,303.8q0,10.69-3.63,17.56a28.72,28.72,0,0,1-9.73,10.87A41.08,41.08,0,0,1,292.5,338a80.19,80.19,0,0,1-16.79,1.71Z"/></svg>