<svg id="Layer_1" data-name="Layer 1" xmlns="http://www.w3.org/2000/svg" xmlns:xlink="http://www.w3.org/1999/xlink" viewBox="0 0 500 500"><defs><style>.cls-1{fill:url(#radial-gradient);}.cls-2{fill:#ff7f18;}</style><radialGradient id="radial-gradient" cx="-445.88" cy="305.24" r="0.15" gradientTransform="matrix(2291.67, 0, 0, -2275.64, 1021972.03, 694744.25)" gradientUnits="userSpaceOnUse"><stop offset="0" stop-color="#423325" stop-opacity="0.98"/><stop offset="1" stop-color="#1c0a00"/></radialGradient></defs><title>illustratorCC</title><path class="cls-1" d="M20.84,21.37H479.17V478.63H20.84Z"/><path class="cls-2" d="M20.84,21.37H479.17V478.63H20.84ZM0,500H500V0H0ZM327.5,178.21c0-1.71.63-2.57,2.5-2.57h32.71c1.67,0,2.5.64,2.5,2.57V346.8c0,1.7-.42,2.56-2.5,2.56H330.42c-2.08,0-2.71-1.07-2.71-2.78V178.2h-.21Zm-2.29-48.51c0-13.67,9.38-21.79,21.25-21.79,12.71,0,21.25,8.76,21.25,21.79,0,14.1-9,21.79-21.67,21.79C334,151.5,325.21,143.8,325.21,129.7ZM231.46,248.5c-5.83-23.71-19.58-75.42-24.79-100.42h-.42c-4.37,25-15.41,67.3-24.16,100.42Zm-57.92,34.62-16.45,64.1c-.42,1.71-1.05,2.14-3.13,2.14H123.34c-2.09,0-2.5-.64-2.09-3.21l59.17-212.39c1-3.85,1.67-7.27,2.08-17.73,0-1.5.63-2.14,1.67-2.14h43.75c1.46,0,2.08.43,2.5,2.14l66.25,230.55c.41,1.71,0,2.78-1.67,2.78H260.42c-1.67,0-2.71-.43-3.13-1.92l-17.08-64.32Z"/></svg>