<svg xmlns="http://www.w3.org/2000/svg" viewBox="0 0 450 450"><defs><style>.cls-1{fill:#f7df1e;}</style></defs><title>Asset 2</title><g id="Layer_2" data-name="Layer 2"><g id="Layer_1-2" data-name="Layer 1"><path class="cls-1" d="M0,0H450V450H0Z"/><path d="M118.32,376.05l34.44-20.84C159.4,367,165.45,377,179.94,377c13.9,0,22.66-5.44,22.66-26.58V206.59h42.29V351c0,43.8-25.68,63.73-63.14,63.73-33.82,0-53.46-17.52-63.43-38.66m149.54-4.53,34.43-19.93c9.06,14.8,20.85,25.67,41.69,25.67,17.52,0,28.69-8.76,28.69-20.84,0-14.5-11.48-19.64-30.81-28.09l-10.57-4.54c-30.51-13-50.75-29.29-50.75-63.73,0-31.72,24.17-55.88,61.93-55.88,26.88,0,46.21,9.36,60.11,33.83l-32.93,21.14c-7.25-13-15.1-18.12-27.18-18.12-12.39,0-20.24,7.86-20.24,18.12,0,12.69,7.85,17.83,26,25.68l10.57,4.53c36,15.41,56.19,31.12,56.19,66.45,0,38.07-29.9,58.91-70.08,58.91-39.27,0-64.64-18.73-77-43.2"/></g></g></svg>