<svg id="Layer_1" data-name="Layer 1" xmlns="http://www.w3.org/2000/svg" viewBox="0 0 500 500"><defs><style>.cls-1{fill:#fff;}.cls-2{fill:#0077b7;}</style></defs><title>linkedin</title><rect class="cls-1" x="57" y="54" width="391" height="383"/><path class="cls-2" d="M434.29,25H65.71A40.7,40.7,0,0,0,25,65.71V434.29A40.71,40.71,0,0,0,65.71,475H434.29A40.71,40.71,0,0,0,475,434.29V65.71A40.71,40.71,0,0,0,434.29,25Zm-270,388.56a11.85,11.85,0,0,1-11.85,11.85H102a11.85,11.85,0,0,1-11.85-11.85V202.18A11.84,11.84,0,0,1,102,190.33H152.4a11.84,11.84,0,0,1,11.85,11.85ZM127.19,170.4a47.91,47.91,0,1,1,47.91-47.9A47.89,47.89,0,0,1,127.19,170.4ZM427.77,414.51a10.89,10.89,0,0,1-10.89,10.9H362.77a10.9,10.9,0,0,1-10.89-10.9V315.36c0-14.79,4.34-64.81-38.65-64.81-33.35,0-40.12,34.24-41.48,49.6V414.51a10.89,10.89,0,0,1-10.89,10.9H208.53a10.89,10.89,0,0,1-10.89-10.9V201.22a10.89,10.89,0,0,1,10.89-10.89h52.33a10.89,10.89,0,0,1,10.89,10.89v18.44c12.37-18.55,30.75-32.88,69.87-32.88,86.65,0,86.15,81,86.15,125.43v102.3Z"/></svg>