<svg id="Layer_1" data-name="Layer 1" xmlns="http://www.w3.org/2000/svg" xmlns:xlink="http://www.w3.org/1999/xlink" viewBox="0 0 500 500"><defs><style>.cls-1{fill:none;}.cls-2{fill:#2062af;}.cls-3{fill:#3c9cd7;}.cls-4{fill:#fff;}.cls-5{fill:url(#linear-gradient);}.cls-6{fill:url(#linear-gradient-2);}.cls-7{fill:url(#linear-gradient-3);}.cls-8{opacity:0.05;isolation:isolate;}.cls-9{fill:url(#linear-gradient-4);}</style><linearGradient id="linear-gradient" x1="-1206.42" y1="-932.82" x2="-1206.42" y2="-947.37" gradientTransform="translate(5809.15 4622.73) scale(4.64)" gradientUnits="userSpaceOnUse"><stop offset="0.39" stop-color="#d1d3d4" stop-opacity="0"/><stop offset="1" stop-color="#d1d3d4"/></linearGradient><linearGradient id="linear-gradient-2" x1="-1188.25" y1="-940.08" x2="-1188.25" y2="-955.2" xlink:href="#linear-gradient"/><linearGradient id="linear-gradient-3" x1="-1215.17" y1="-926.34" x2="-1180.24" y2="-926.34" gradientTransform="translate(5809.15 4622.73) scale(4.64)" gradientUnits="userSpaceOnUse"><stop offset="0" stop-color="#e8e7e5"/><stop offset="1" stop-color="#fff"/></linearGradient><linearGradient id="linear-gradient-4" x1="-1216.78" y1="-951.49" x2="-1178.85" y2="-951.49" xlink:href="#linear-gradient-3"/></defs><title>CSS3</title><path class="cls-1" d="M25,25H475V475H25Z"/><path class="cls-2" d="M363.81,415.57,250,446.21,136.19,415.57,109.93,131.05H390.07Z"/><path class="cls-3" d="M250,154.1V421.77l.25.07,92.1-24.8L363.61,154.1Z"/><path d="M185.41,89.25V72.32h24.71V53.79H166.88v52.37h43.24V89.25Zm69.15-16.93h17.27V53.79H228.59V72.32c5.79,5.78,8.81,8.55,17.17,16.92-4.89,0-17.17,0-17.17,0v16.91h43.24V89.25L254.56,72.32Zm61.29,0h17.27V53.79H289.88V72.32c5.78,5.78,8.8,8.55,17.17,16.92-4.89,0-17.17,0-17.17,0v16.91h43.24V89.25L315.85,72.32Z"/><path class="cls-4" d="M249.9,225.24l-81.46,33.92,2.7,33.59,78.76-33.67,83.77-35.82,3.47-34.36L249.9,225.24Z"/><path class="cls-5" d="M168.44,259.16l2.7,33.59,78.76-33.67V225.24Z"/><path class="cls-6" d="M337.14,188.9,249.9,225.24v33.84l83.77-35.82Z"/><path class="cls-7" d="M168.57,259.16l2.7,33.59,120.84.39-2.71,44.78-39.76,11.19-38.22-9.65-2.32-27.8H173.58l4.64,53.67L250,386.56l71.42-20.85,9.26-106.55Z"/><path class="cls-8" d="M249.9,259.16H168.44l2.7,33.59,78.76.25V259.16Zm0,89.85-.39.1-38.22-9.65L209,311.67H173.46l4.63,53.66,71.81,21.23Z"/><path class="cls-9" d="M161.11,188.9h176l-3.47,34.36H165.35l-4.24-34.36Z"/><path class="cls-8" d="M249.9,188.9H161.11l4.24,34.36H249.9V188.9Z"/></svg>