<svg id="Layer_1" data-name="Layer 1" xmlns="http://www.w3.org/2000/svg" xmlns:xlink="http://www.w3.org/1999/xlink" viewBox="0 0 500 500"><defs><style>.cls-1{fill:url(#radial-gradient);}.cls-2{fill:#31c5f0;}</style><radialGradient id="radial-gradient" cx="-445.88" cy="305.24" r="0.15" gradientTransform="matrix(2291.67, 0, 0, -2275.64, 1021972.03, 694744.25)" gradientUnits="userSpaceOnUse"><stop offset="0" stop-color="#34364e" stop-opacity="0.98"/><stop offset="1" stop-color="#0c0824"/></radialGradient></defs><title>photoshopCC</title><path class="cls-1" d="M20.84,21.37H479.17V478.63H20.84Z"/><path class="cls-2" d="M20.84,21.37H479.17V478.63H20.84ZM0,500H500V0H0ZM337.09,205.13c-16.46,0-22.09,8.54-22.09,15.6,0,7.69,3.75,13,25.84,24.78,32.7,16.24,42.91,31.84,42.91,54.7,0,34.19-25.41,52.57-59.79,52.57-18.12,0-33.75-3.85-42.71-9.19-1.46-.64-1.66-1.71-1.66-3.42V308.76c0-2.14,1-2.78,2.5-1.71A75.91,75.91,0,0,0,324,319.66c16.46,0,23.33-7.05,23.33-16.67,0-7.69-4.79-14.53-25.83-25.64-29.58-14.53-41.87-29.27-41.87-53.85,0-27.56,21-50.42,57.5-50.42,17.91,0,30.41,2.77,37.29,6a4.79,4.79,0,0,1,2.08,4.27v29.28c0,1.7-1,2.77-3.13,2.13-9.16-6-22.7-9.61-36.24-9.61ZM157.92,230.56c4.79.42,8.54.42,16.87.42,24.38,0,47.3-8.76,47.3-42.73,0-27.14-16.46-40.81-44.17-40.81-8.33,0-16.25.42-20,.64ZM120.84,117.09c0-1.49,2.91-2.56,4.58-2.56,13.33-.64,33.12-1.07,53.75-1.07,57.71,0,80.21,32.48,80.21,73.93C259.38,241.67,221,265,174,265c-7.92,0-10.62-.43-16.25-.43v82.05c0,1.71-.62,2.56-2.5,2.56H123.34c-1.67,0-2.5-.64-2.5-2.56V117.09Z"/></svg>