<svg xmlns="http://www.w3.org/2000/svg" width="1440" height="900"><path d="M1010,532L756,354L884,789Z" fill="#80bfbf" stroke="#80bfbf" stroke-width="1.51"/><path d="M756,354L532,602L884,789Z" fill="#85c2c2" stroke="#85c2c2" stroke-width="1.51"/><path d="M532,602L612,835L884,789Z" fill="#7fbfbf" stroke="#7fbfbf" stroke-width="1.51"/><path d="M1010,532L875,270L756,354Z" fill="#88c3c3" stroke="#88c3c3" stroke-width="1.51"/><path d="M612,835L677,929L884,789Z" fill="#78bbbb" stroke="#78bbbb" stroke-width="1.51"/><path d="M875,270L781,184L756,354Z" fill="#91c8c8" stroke="#91c8c8" stroke-width="1.51"/><path d="M756,354L385,503L532,602Z" fill="#90c7c7" stroke="#90c7c7" stroke-width="1.51"/><path d="M325,206L385,503L756,354Z" fill="#99cccc" stroke="#99cccc" stroke-width="1.51"/><path d="M532,602L515,929L612,835Z" fill="#82c0c0" stroke="#82c0c0" stroke-width="1.51"/><path d="M612,835L515,929L677,929Z" fill="#7abcbc" stroke="#7abcbc" stroke-width="1.51"/><path d="M260,693L515,929L532,602Z" fill="#89c3c3" stroke="#89c3c3" stroke-width="1.51"/><path d="M385,503L260,693L532,602Z" fill="#91c7c7" stroke="#91c7c7" stroke-width="1.51"/><path d="M1010,532L1196,156L875,270Z" fill="#86c2c2" stroke="#86c2c2" stroke-width="1.51"/><path d="M875,270L1196,156L781,184Z" fill="#8fc6c6" stroke="#8fc6c6" stroke-width="1.51"/><path d="M884,789L1337,692L1010,532Z" fill="#74b9b9" stroke="#74b9b9" stroke-width="1.51"/><path d="M1232,998L1337,692L884,789Z" fill="#69b4b4" stroke="#69b4b4" stroke-width="1.51"/><path d="M789,1228L1128,1030L884,789Z" fill="#69b3b3" stroke="#69b3b3" stroke-width="1.51"/><path d="M789,1228L884,789L677,929Z" fill="#6fb7b7" stroke="#6fb7b7" stroke-width="1.51"/><path d="M1337,692L1346,472L1010,532Z" fill="#72b8b8" stroke="#72b8b8" stroke-width="1.51"/><path d="M385,503L225,407L260,693Z" fill="#97cbcb" stroke="#97cbcb" stroke-width="1.51"/><path d="M325,206L225,407L385,503Z" fill="#9fcece" stroke="#9fcece" stroke-width="1.51"/><path d="M1346,472L1196,156L1010,532Z" fill="#7dbebe" stroke="#7dbebe" stroke-width="1.51"/><path d="M781,184L325,206L756,354Z" fill="#99cccc" stroke="#99cccc" stroke-width="1.51"/><path d="M518,-71L325,206L781,184Z" fill="#a3d0d0" stroke="#a3d0d0" stroke-width="1.51"/><path d="M1128,1030L1232,998L884,789Z" fill="#66b2b2" stroke="#66b2b2" stroke-width="1.51"/><path d="M1346,472L1416,180L1196,156Z" fill="#7ebebe" stroke="#7ebebe" stroke-width="1.51"/><path d="M1337,692L1404,582L1346,472Z" fill="#6db6b6" stroke="#6db6b6" stroke-width="1.51"/><path d="M1572,774L1404,582L1337,692Z" fill="#65b2b2" stroke="#65b2b2" stroke-width="1.51"/><path d="M526,1232L789,1228L677,929Z" fill="#6eb5b5" stroke="#6eb5b5" stroke-width="1.51"/><path d="M1128,1030L1357,1257L1232,998Z" fill="#59acac" stroke="#59acac" stroke-width="1.51"/><path d="M526,1232L677,929L515,929Z" fill="#76b9b9" stroke="#76b9b9" stroke-width="1.51"/><path d="M65,1089L526,1232L515,929Z" fill="#7dbcbc" stroke="#7dbcbc" stroke-width="1.51"/><path d="M680,-195L518,-71L781,184Z" fill="#a5d1d1" stroke="#a5d1d1" stroke-width="1.51"/><path d="M789,1228L991,1295L1128,1030Z" fill="#60afaf" stroke="#60afaf" stroke-width="1.51"/><path d="M961,1486L991,1295L821,1524Z" fill="#59aaaa" stroke="#59aaaa" stroke-width="1.51"/><path d="M1025,-175L680,-195L781,184Z" fill="#a0cfcf" stroke="#a0cfcf" stroke-width="1.51"/><path d="M1823,381L1416,180L1346,472Z" fill="#74b8b8" stroke="#74b8b8" stroke-width="1.51"/><path d="M1025,-175L781,184L1196,156Z" fill="#94c9c9" stroke="#94c9c9" stroke-width="1.51"/><path d="M1137,-183L1025,-175L1196,156Z" fill="#96caca" stroke="#96caca" stroke-width="1.51"/><path d="M225,407L-24,355L260,693Z" fill="#9fcece" stroke="#9fcece" stroke-width="1.51"/><path d="M325,206L69,227L225,407Z" fill="#a7d2d2" stroke="#a7d2d2" stroke-width="1.51"/><path d="M123,-117L69,227L325,206Z" fill="#b0d8d7" stroke="#b0d8d7" stroke-width="1.51"/><path d="M123,-117L325,206L518,-71Z" fill="#b0d7d7" stroke="#b0d7d7" stroke-width="1.51"/><path d="M1404,582L1823,381L1346,472Z" fill="#6db5b5" stroke="#6db5b5" stroke-width="1.51"/><path d="M1232,998L1572,774L1337,692Z" fill="#60afaf" stroke="#60afaf" stroke-width="1.51"/><path d="M1677,865L1572,774L1504,1212Z" fill="#53a9a9" stroke="#53a9a9" stroke-width="1.51"/><path d="M69,227L-24,355L225,407Z" fill="#a9d4d4" stroke="#a9d4d4" stroke-width="1.51"/><path d="M260,693L65,1089L515,929Z" fill="#87c2c2" stroke="#87c2c2" stroke-width="1.51"/><path d="M1025,-175L1007,-247L680,-195Z" fill="#a5d1d1" stroke="#a5d1d1" stroke-width="1.51"/><path d="M1416,180L1137,-183L1196,156Z" fill="#8bc4c4" stroke="#8bc4c4" stroke-width="1.51"/><path d="M1137,-183L1007,-247L1025,-175Z" fill="#9fcece" stroke="#9fcece" stroke-width="1.51"/><path d="M19,1042L65,1089L260,693Z" fill="#8bc4c4" stroke="#8bc4c4" stroke-width="1.51"/><path d="M991,1295L1357,1257L1128,1030Z" fill="#58abab" stroke="#58abab" stroke-width="1.51"/><path d="M-219,859L19,1042L260,693Z" fill="#93c8c8" stroke="#93c8c8" stroke-width="1.51"/><path d="M991,1295L1312,1554L1357,1257Z" fill="#4ea5a5" stroke="#4ea5a5" stroke-width="1.51"/><path d="M821,1524L991,1295L789,1228Z" fill="#5eacac" stroke="#5eacac" stroke-width="1.51"/><path d="M821,1524L789,1228L526,1232Z" fill="#65b0b0" stroke="#65b0b0" stroke-width="1.51"/><path d="M1504,1212L1572,774L1232,998Z" fill="#56aaaa" stroke="#56aaaa" stroke-width="1.51"/><path d="M1572,774L1823,381L1404,582Z" fill="#66b1b1" stroke="#66b1b1" stroke-width="1.51"/><path d="M400,1675L821,1524L526,1232Z" fill="#67b0b0" stroke="#67b0b0" stroke-width="1.51"/><path d="M1357,1257L1504,1212L1232,998Z" fill="#51a8a8" stroke="#51a8a8" stroke-width="1.51"/><path d="M1565,1610L1504,1212L1357,1257Z" fill="#44a1a1" stroke="#44a1a1" stroke-width="1.51"/><path d="M415,-316L123,-117L518,-71Z" fill="#b7dbdb" stroke="#b7dbdb" stroke-width="1.51"/><path d="M69,227L-38,65L-24,355Z" fill="#b2d8d8" stroke="#b2d8d8" stroke-width="1.51"/><path d="M415,-316L518,-71L680,-195Z" fill="#b1d8d8" stroke="#b1d8d8" stroke-width="1.51"/><path d="M845,-488L415,-316L680,-195Z" fill="#b4d9d9" stroke="#b4d9d9" stroke-width="1.51"/><path d="M65,1089L142,1309L526,1232Z" fill="#7cbbbb" stroke="#7cbbbb" stroke-width="1.51"/><path d="M-53,1404L142,1309L65,1089Z" fill="#82bebd" stroke="#82bebd" stroke-width="1.51"/><path d="M123,-117L-38,65L69,227Z" fill="#b7dbdb" stroke="#b7dbdb" stroke-width="1.51"/><path d="M19,1042L-53,1404L65,1089Z" fill="#87c1c0" stroke="#87c1c0" stroke-width="1.51"/><path d="M-280,520L-219,859L260,693Z" fill="#9ecece" stroke="#9ecece" stroke-width="1.51"/><path d="M-280,520L260,693L-24,355Z" fill="#a3d0d0" stroke="#a3d0d0" stroke-width="1.51"/><path d="M1874,780L1823,381L1572,774Z" fill="#5dadad" stroke="#5dadad" stroke-width="1.51"/><path d="M1416,180L1650,-117L1137,-183Z" fill="#8bc4c4" stroke="#8bc4c4" stroke-width="1.51"/><path d="M1823,381L1772,179L1416,180Z" fill="#75b8b8" stroke="#75b8b8" stroke-width="1.51"/><path d="M-417,272L-280,520L-24,355Z" fill="#b3d8d8" stroke="#b3d8d8" stroke-width="1.51"/><path d="M142,1309L308,1538L526,1232Z" fill="#74b6b6" stroke="#74b6b6" stroke-width="1.51"/><path d="M-53,1404L308,1538L142,1309Z" fill="#79b9b8" stroke="#79b9b8" stroke-width="1.51"/><path d="M1007,-247L845,-488L680,-195Z" fill="#acd4d4" stroke="#acd4d4" stroke-width="1.51"/><path d="M1326,-400L845,-488L1007,-247Z" fill="#a8d2d2" stroke="#a8d2d2" stroke-width="1.51"/><path d="M1326,-400L1007,-247L1137,-183Z" fill="#9fcece" stroke="#9fcece" stroke-width="1.51"/><path d="M400,1675L1312,1554L821,1524Z" fill="#5cabab" stroke="#5cabab" stroke-width="1.51"/><path d="M821,1524L1312,1554L961,1486Z" fill="#54a8a8" stroke="#54a8a8" stroke-width="1.51"/><path d="M961,1486L1312,1554L991,1295Z" fill="#52a7a7" stroke="#52a7a7" stroke-width="1.51"/><path d="M1925,869L1677,865L1772,1364Z" fill="#48a3a3" stroke="#48a3a3" stroke-width="1.51"/><path d="M1925,869L1874,780L1677,865Z" fill="#50a7a7" stroke="#50a7a7" stroke-width="1.51"/><path d="M1677,865L1874,780L1572,774Z" fill="#56aaaa" stroke="#56aaaa" stroke-width="1.51"/><path d="M-289,1368L-53,1404L19,1042Z" fill="#88c1c0" stroke="#88c1c0" stroke-width="1.51"/><path d="M-280,520L-303,797L-219,859Z" fill="#a4d1d1" stroke="#a4d1d1" stroke-width="1.51"/><path d="M1772,179L1650,-117L1416,180Z" fill="#7fbdbd" stroke="#7fbdbd" stroke-width="1.51"/><path d="M1492,-369L1326,-400L1137,-183Z" fill="#9bcccc" stroke="#9bcccc" stroke-width="1.51"/><path d="M88,-392L-159,-43L123,-117Z" fill="#c4e1e1" stroke="#c4e1e1" stroke-width="1.51"/><path d="M123,-117L-159,-43L-38,65Z" fill="#bedede" stroke="#bedede" stroke-width="1.51"/><path d="M-38,65L-417,272L-24,355Z" fill="#b7dbda" stroke="#b7dbda" stroke-width="1.51"/><path d="M308,1538L400,1675L526,1232Z" fill="#6eb4b3" stroke="#6eb4b3" stroke-width="1.51"/><path d="M-109,1517L400,1675L308,1538Z" fill="#77b7b7" stroke="#77b7b7" stroke-width="1.51"/><path d="M2134,635L2111,370L1823,381Z" fill="#61adad" stroke="#61adad" stroke-width="1.51"/><path d="M1772,1364L1677,865L1504,1212Z" fill="#48a3a2" stroke="#48a3a2" stroke-width="1.51"/><path d="M-109,1517L-53,1404L-289,1368Z" fill="#84bebd" stroke="#84bebd" stroke-width="1.51"/><path d="M1650,-117L1492,-369L1137,-183Z" fill="#94c8c8" stroke="#94c8c8" stroke-width="1.51"/><path d="M415,-316L88,-392L123,-117Z" fill="#c1e0e0" stroke="#c1e0e0" stroke-width="1.51"/><path d="M845,-488L88,-392L415,-316Z" fill="#bedede" stroke="#bedede" stroke-width="1.51"/><path d="M1650,-117L1678,-397L1492,-369Z" fill="#92c6c6" stroke="#92c6c6" stroke-width="1.51"/><path d="M1772,179L1850,-42L1650,-117Z" fill="#7ebcbc" stroke="#7ebcbc" stroke-width="1.51"/><path d="M2097,238L1850,-42L1772,179Z" fill="#74b7b7" stroke="#74b7b7" stroke-width="1.51"/><path d="M2097,238L1772,179L1823,381Z" fill="#6db3b3" stroke="#6db3b3" stroke-width="1.51"/><path d="M-159,-43L-417,272L-38,65Z" fill="#bfdfde" stroke="#bfdfde" stroke-width="1.51"/><path d="M-280,520L-417,272L-303,797Z" fill="#b0d6d6" stroke="#b0d6d6" stroke-width="1.51"/><path d="M-359,-131L-417,272L-159,-43Z" fill="#c6e2e2" stroke="#c6e2e2" stroke-width="1.51"/><path d="M1712,1510L1772,1364L1504,1212Z" fill="#3d9d9d" stroke="#3d9d9d" stroke-width="1.51"/><path d="M1312,1554L1565,1610L1357,1257Z" fill="#44a1a1" stroke="#44a1a1" stroke-width="1.51"/><path d="M400,1675L1565,1610L1312,1554Z" fill="#52a7a7" stroke="#52a7a7" stroke-width="1.51"/><path d="M-289,1368L19,1042L-219,859Z" fill="#91c6c6" stroke="#91c6c6" stroke-width="1.51"/><path d="M-53,1404L-109,1517L308,1538Z" fill="#7cbaba" stroke="#7cbaba" stroke-width="1.51"/><path d="M1565,1610L1712,1510L1504,1212Z" fill="#3d9d9d" stroke="#3d9d9d" stroke-width="1.51"/><path d="M1850,-42L1678,-397L1650,-117Z" fill="#89c1c0" stroke="#89c1c0" stroke-width="1.51"/><path d="M1492,-369L1678,-397L1326,-400Z" fill="#9acaca" stroke="#9acaca" stroke-width="1.51"/><path d="M1326,-400L1678,-397L845,-488Z" fill="#a2cfcf" stroke="#a2cfcf" stroke-width="1.51"/><path d="M-496,1061L-289,1368L-219,859Z" fill="#98c9c8" stroke="#98c9c8" stroke-width="1.51"/><path d="M-496,1061L-219,859L-303,797Z" fill="#9ecece" stroke="#9ecece" stroke-width="1.51"/><path d="M2134,635L1823,381L1874,780Z" fill="#5aaaaa" stroke="#5aaaaa" stroke-width="1.51"/><path d="M1850,-42L2066,-341L1678,-397Z" fill="#89c0c0" stroke="#89c0c0" stroke-width="1.51"/><path d="M2134,635L1874,780L1925,869Z" fill="#50a6a6" stroke="#50a6a6" stroke-width="1.51"/><path d="M-108,-448L-359,-131L-159,-43Z" fill="#cde6e6" stroke="#cde6e6" stroke-width="1.51"/><path d="M2067,1110L1925,869L1772,1364Z" fill="#3f9e9e" stroke="#3f9e9e" stroke-width="1.51"/><path d="M2067,1110L2134,635L1925,869Z" fill="#4aa4a4" stroke="#4aa4a4" stroke-width="1.51"/><path d="M2111,370L2097,238L1823,381Z" fill="#68b1b1" stroke="#68b1b1" stroke-width="1.51"/><path d="M88,-392L-108,-448L-159,-43Z" fill="#cce5e5" stroke="#cce5e5" stroke-width="1.51"/><path d="M845,-488L-108,-448L88,-392Z" fill="#c7e3e3" stroke="#c7e3e3" stroke-width="1.51"/><path d="M-417,272L-496,1061L-303,797Z" fill="#aad3d3" stroke="#aad3d3" stroke-width="1.51"/><path d="M2194,1293L2067,1110L1772,1364Z" fill="#369a9a" stroke="#369a9a" stroke-width="1.51"/><path d="M-108,-448L-398,-416L-359,-131Z" fill="#d6ebea" stroke="#d6ebea" stroke-width="1.51"/><path d="M-359,-131L-398,-416L-417,272Z" fill="#cfe7e6" stroke="#cfe7e6" stroke-width="1.51"/><path d="M-417,272L-398,-416L-496,1061Z" fill="#bddede" stroke="#bddede" stroke-width="1.51"/><path d="M2111,370L2177,-108L2097,238Z" fill="#70b5b5" stroke="#70b5b5" stroke-width="1.51"/><path d="M2097,238L2177,-108L1850,-42Z" fill="#78b8b7" stroke="#78b8b7" stroke-width="1.51"/><path d="M2134,635L2177,-108L2111,370Z" fill="#6ab1b1" stroke="#6ab1b1" stroke-width="1.51"/><path d="M2069,1529L2194,1293L1772,1364Z" fill="#2f9797" stroke="#2f9797" stroke-width="1.51"/><path d="M2067,1110L2194,1293L2134,635Z" fill="#43a0a0" stroke="#43a0a0" stroke-width="1.51"/><path d="M2134,635L2194,1293L2177,-108Z" fill="#59aaaa" stroke="#59aaaa" stroke-width="1.51"/><path d="M2069,1529L1772,1364L1712,1510Z" fill="#339999" stroke="#339999" stroke-width="1.51"/><path d="M2177,-108L2066,-341L1850,-42Z" fill="#81bcbc" stroke="#81bcbc" stroke-width="1.51"/><path d="M1565,1610L2069,1529L1712,1510Z" fill="#359a9a" stroke="#359a9a" stroke-width="1.51"/><path d="M-109,1517L-464,1611L400,1675Z" fill="#81bcbc" stroke="#81bcbc" stroke-width="1.51"/><path d="M-289,1368L-464,1611L-109,1517Z" fill="#8ac1c0" stroke="#8ac1c0" stroke-width="1.51"/><path d="M-496,1061L-464,1611L-289,1368Z" fill="#91c4c4" stroke="#91c4c4" stroke-width="1.51"/></svg>